<svg width="90" height="93" viewBox="0 0 90 93" fill="none" xmlns="http://www.w3.org/2000/svg">
<path d="M32.9081 74.6287C39.4209 79.4914 38.2708 88.8759 36.8817 92.9604H51.807C51.7101 92.6709 51.4387 91.2044 51.1286 87.6538C50.8185 84.1033 52.5501 81.5432 53.4546 80.7071C57.1698 77.8447 63.3596 72.5253 58.3974 74.1462C53.4353 75.7671 54.5853 74.1784 55.7807 73.1814L59.1728 69.708C60.0127 68.1321 60.3552 65.9838 55.0053 69.9975C49.6555 74.0112 53.1639 67.8749 55.5868 64.305C56.2329 63.0507 56.2265 61.7193 51.0317 66.4276C44.5382 72.3131 49.8687 66.7171 50.8379 62.3753C51.6132 58.902 50.7086 59.1271 50.1594 59.6738C48.9964 60.703 45.9532 63.8805 43.0844 68.3573C39.4985 73.9533 29.1283 68.7432 28.6437 68.7432C28.1591 68.7432 24.767 68.5502 32.9081 74.6287Z" fill="white"/>
<path d="M6.06417 72.6616C8.56684 68.5608 15.7668 61.9546 24.5455 68.3365C22.3636 72.3412 15.6128 78.8129 6.06417 72.6616Z" fill="white"/>
<path d="M19.0588 61.8008C17.3262 57.2515 11.0888 49.4791 0 54.7845C2.2139 59.1417 9.12513 66.6449 19.0588 61.8008Z" fill="white"/>
<path d="M0 44.2121C2.37433 41.9694 8.45134 39.4064 13.7647 47.0955C14.9198 47.0955 5.1016 52.8623 0 44.2121Z" fill="white"/>
<path d="M2.31016 27.969C5.90374 27.5845 13.2257 29.2569 13.7647 39.022C10.2032 39.0861 2.9262 36.9652 2.31016 27.969Z" fill="white"/>
<path d="M17.2299 10.4763C21.369 13.3918 27.5294 21.7216 19.0588 31.7174C14.9519 28.7379 8.83636 20.3183 17.2299 10.4763Z" fill="white"/>
<path d="M28.9733 19.3188C34.139 17.3645 43.2578 10.7647 38.4064 0C33.5936 1.82615 24.969 8.24652 28.9733 19.3188Z" fill="white"/>
<path d="M24.5455 42.0976C29.7433 41.6811 39.5615 37.6764 37.2513 24.9894C36 25.9506 23.7754 23.8361 24.5455 42.0976Z" fill="white"/>
<path d="M26.3743 60.4552C26.3743 59.8786 32.9198 48.6333 18.385 44.2121C17.4225 48.7935 17.6727 58.4561 26.3743 60.4552Z" fill="white"/>
<path d="M35.7112 44.2121C35.7112 44.981 49.0909 48.9216 41.3904 65.1648C36.7059 62.1212 29.0118 53.6696 35.7112 44.2121Z" fill="white"/>
<path d="M52.9412 49.4022C48.3529 48.0246 40.3123 42.1553 44.8556 29.699C49.3155 31.0125 57.1765 36.7921 52.9412 49.4022Z" fill="white"/>
<path d="M58.6203 60.4552C63.1123 59.2698 71.0374 53.7081 66.8021 40.9442C61.893 42.4821 53.384 48.5372 58.6203 60.4552Z" fill="white"/>
<path d="M63.5294 67.4715C66.385 64.3318 73.9059 60.1092 81.1444 68.3365C78.5775 71.5723 71.461 75.9295 63.5294 67.4715Z" fill="white"/>
<path d="M73.0588 59.1096C72.8342 53.8234 75.908 43.8661 90 46.3266C89.5547 51.2604 85.543 60.7243 73.0588 59.1096Z" fill="white"/>
<path d="M77.5829 42.0976C81.5615 40.9122 88.4599 35.831 84.2246 24.9894C79.7968 26.2389 72.2695 31.4098 77.5829 42.0976Z" fill="white"/>
<path d="M60.8342 39.022C64.9733 35.8502 71.3069 27.0655 63.5294 17.3004C59.0374 20.1517 52.2096 28.488 60.8342 39.022Z" fill="white"/>
<path d="M64.7807 6.34347C69.1123 6.72793 77.3711 10.188 75.754 20.9527C71.4225 20.6643 63.1636 17.3388 64.7807 6.34347Z" fill="white"/>
<path d="M52.9412 22.3944C52.9412 21.7216 61.7005 10.188 49.4759 1.15336C46.0107 4.74159 41.8524 14.0133 52.9412 22.3944Z" fill="white"/>
</svg>
