<svg width="1366" height="768" viewBox="0 0 1366 768" fill="none" xmlns="http://www.w3.org/2000/svg">
<path d="M684.039 0H1345.23V291.188C961.947 287.997 744.734 95.7331 684.039 0Z" fill="url(#paint0_linear_211_370)"/>
<path d="M539.491 183.59C279.38 285.309 104.056 235.524 0 196.869V0.031025L982.989 0.031025C985.365 -0.0101412 987.72 -0.0105417 990.056 0.031025H982.989C845.862 2.40774 644.023 140.668 539.491 183.59Z" fill="#B1CDFF"/>
<path fill-rule="evenodd" clip-rule="evenodd" d="M0 524.864L28.4295 496.646C56.859 468.428 113.718 411.993 170.577 411.993C227.436 411.993 284.295 468.428 341.154 496.646C398.013 524.864 454.872 524.864 511.731 496.646C568.59 468.428 625.449 411.993 682.308 389.418C739.167 366.844 796.026 378.131 852.885 428.923C909.744 479.716 966.603 570.013 1023.46 603.874C1080.32 637.736 1137.18 615.161 1194.04 575.656C1250.9 536.151 1307.76 479.716 1336.19 451.498L1364.62 423.28V660.31H1336.19C1307.76 660.31 1250.9 660.31 1194.04 660.31C1137.18 660.31 1080.32 660.31 1023.46 660.31C966.603 660.31 909.744 660.31 852.885 660.31C796.026 660.31 739.167 660.31 682.308 660.31C625.449 660.31 568.59 660.31 511.731 660.31C454.872 660.31 398.013 660.31 341.154 660.31C284.295 660.31 227.436 660.31 170.577 660.31C113.718 660.31 56.859 660.31 28.4295 660.31H0V524.864Z" fill="#FFE2AA"/>
<path fill-rule="evenodd" clip-rule="evenodd" d="M1.3847 556.322L29.8142 528.459C58.2437 500.596 115.103 444.869 171.962 444.869C228.821 444.869 285.68 500.596 342.539 528.459C399.398 556.322 456.257 556.322 513.115 528.459C569.974 500.596 626.833 444.869 683.692 422.578C740.551 400.288 797.41 411.433 854.269 461.587C911.128 511.741 967.987 600.904 1024.85 634.34C1081.71 667.776 1138.56 645.485 1195.42 606.476C1252.28 567.468 1309.14 511.741 1337.57 483.878L1366 456.014V690.067H1337.57C1309.14 690.067 1252.28 690.067 1195.42 690.067C1138.56 690.067 1081.71 690.067 1024.85 690.067C967.987 690.067 911.128 690.067 854.269 690.067C797.41 690.067 740.551 690.067 683.692 690.067C626.833 690.067 569.974 690.067 513.115 690.067C456.257 690.067 399.398 690.067 342.539 690.067C285.68 690.067 228.821 690.067 171.962 690.067C115.103 690.067 58.2437 690.067 29.8142 690.067H1.3847V556.322Z" fill="#FFCD6C"/>
<path fill-rule="evenodd" clip-rule="evenodd" d="M1.3847 585.064L29.8142 558.76C58.2437 532.457 115.103 479.85 171.962 479.85C228.821 479.85 285.68 532.457 342.539 558.76C399.398 585.064 456.257 585.064 513.115 558.76C569.974 532.457 626.833 479.85 683.692 458.807C740.551 437.764 797.41 448.285 854.269 495.632C911.128 542.978 967.987 627.15 1024.85 658.714C1081.71 690.278 1138.56 669.235 1195.42 632.41C1252.28 595.585 1309.14 542.978 1337.57 516.675L1366 490.371V711.321H1337.57C1309.14 711.321 1252.28 711.321 1195.42 711.321C1138.56 711.321 1081.71 711.321 1024.85 711.321C967.987 711.321 911.128 711.321 854.269 711.321C797.41 711.321 740.551 711.321 683.692 711.321C626.833 711.321 569.974 711.321 513.115 711.321C456.257 711.321 399.398 711.321 342.539 711.321C285.68 711.321 228.821 711.321 171.962 711.321C115.103 711.321 58.2437 711.321 29.8142 711.321H1.3847V585.064Z" fill="#FFC759"/>
<path fill-rule="evenodd" clip-rule="evenodd" d="M1.3847 618.196L29.8142 592.743C58.2437 567.29 115.103 516.384 171.962 516.384C228.821 516.384 285.68 567.29 342.539 592.743C399.398 618.196 456.257 618.196 513.115 592.743C569.974 567.29 626.833 516.384 683.692 496.022C740.551 475.66 797.41 485.841 854.269 531.656C911.128 577.471 967.987 658.92 1024.85 689.463C1081.71 720.007 1138.56 699.644 1195.42 664.011C1252.28 628.377 1309.14 577.471 1337.57 552.018L1366 526.565V740.369H1337.57C1309.14 740.369 1252.28 740.369 1195.42 740.369C1138.56 740.369 1081.71 740.369 1024.85 740.369C967.987 740.369 911.128 740.369 854.269 740.369C797.41 740.369 740.551 740.369 683.692 740.369C626.833 740.369 569.974 740.369 513.115 740.369C456.257 740.369 399.398 740.369 342.539 740.369C285.68 740.369 228.821 740.369 171.962 740.369C115.103 740.369 58.2437 740.369 29.8142 740.369H1.3847V618.196Z" fill="#FFB72C"/>
<path fill-rule="evenodd" clip-rule="evenodd" d="M0 656.376L28.4295 633.121C56.859 609.867 113.718 563.357 170.577 563.357C227.436 563.357 284.295 609.867 341.154 633.121C398.013 656.376 454.872 656.376 511.731 633.121C568.59 609.867 625.449 563.357 682.308 544.753C739.167 526.149 796.026 535.451 852.885 577.31C909.744 619.168 966.603 693.584 1023.46 721.49C1080.32 749.396 1137.18 730.792 1194.04 698.235C1250.9 665.678 1307.76 619.168 1336.19 595.914L1364.62 572.659V768H1336.19C1307.76 768 1250.9 768 1194.04 768C1137.18 768 1080.32 768 1023.46 768C966.603 768 909.744 768 852.885 768C796.026 768 739.167 768 682.308 768C625.449 768 568.59 768 511.731 768C454.872 768 398.013 768 341.154 768C284.295 768 227.436 768 170.577 768C113.718 768 56.859 768 28.4295 768H0V656.376Z" fill="#FFA800"/>
<defs>
<linearGradient id="paint0_linear_211_370" x1="684.039" y1="145.594" x2="1345.23" y2="145.594" gradientUnits="userSpaceOnUse">
<stop stop-color="#FA5F49"/>
<stop offset="1" stop-color="#BB3F2D"/>
</linearGradient>
</defs>
</svg>
