<svg width="1920" height="1080" viewBox="0 0 1920 1080" fill="none" xmlns="http://www.w3.org/2000/svg">
<path d="M977.985 0H1923.3V411C1375.32 406.496 1064.76 135.123 977.985 0Z" fill="url(#paint0_linear_211_370)"/>
<path d="M771.323 259.129C399.435 402.702 148.772 332.433 0 277.872V0.0437904H1405.4C1408.8 -0.0143138 1412.17 -0.0148791 1415.5 0.0437904H1405.4C1209.35 3.39842 920.774 198.547 771.323 259.129Z" fill="#B1CDFF"/>
<path fill-rule="evenodd" clip-rule="evenodd" d="M0 740.824L40.6463 700.996C81.2925 661.167 162.585 581.511 243.878 581.511C325.17 581.511 406.463 661.167 487.755 700.996C569.048 740.824 650.34 740.824 731.633 700.996C812.925 661.167 894.218 581.511 975.51 549.648C1056.8 517.785 1138.1 533.717 1219.39 605.408C1300.68 677.099 1381.97 804.549 1463.27 852.343C1544.56 900.137 1625.85 868.275 1707.14 812.515C1788.44 756.755 1869.73 677.099 1910.37 637.27L1951.02 597.442V932H1910.37C1869.73 932 1788.44 932 1707.14 932C1625.85 932 1544.56 932 1463.27 932C1381.97 932 1300.68 932 1219.39 932C1138.1 932 1056.8 932 975.51 932C894.218 932 812.925 932 731.633 932C650.34 932 569.048 932 487.755 932C406.463 932 325.17 932 243.878 932C162.585 932 81.2925 932 40.6463 932H0V740.824Z" fill="#FFE2AA"/>
<path fill-rule="evenodd" clip-rule="evenodd" d="M1.97974 785.226L42.626 745.898C83.2722 706.57 164.565 627.914 245.857 627.914C327.15 627.914 408.442 706.57 489.735 745.898C571.027 785.226 652.32 785.226 733.612 745.898C814.905 706.57 896.197 627.914 977.49 596.451C1058.78 564.989 1140.07 580.72 1221.37 651.511C1302.66 722.301 1383.95 848.15 1465.24 895.344C1546.54 942.538 1627.83 911.075 1709.12 856.016C1790.41 800.957 1871.71 722.301 1912.35 682.973L1953 643.645V974H1912.35C1871.71 974 1790.41 974 1709.12 974C1627.83 974 1546.54 974 1465.24 974C1383.95 974 1302.66 974 1221.37 974C1140.07 974 1058.78 974 977.49 974C896.197 974 814.905 974 733.612 974C652.32 974 571.027 974 489.735 974C408.442 974 327.15 974 245.857 974C164.565 974 83.2722 974 42.626 974H1.97974V785.226Z" fill="#FFCD6C"/>
<path fill-rule="evenodd" clip-rule="evenodd" d="M1.97974 825.793L42.626 788.667C83.2722 751.54 164.565 677.288 245.857 677.288C327.15 677.288 408.442 751.54 489.735 788.667C571.027 825.793 652.32 825.793 733.612 788.667C814.905 751.54 896.197 677.288 977.49 647.586C1058.78 617.885 1140.07 632.736 1221.37 699.563C1302.66 766.391 1383.95 885.195 1465.24 929.747C1546.54 974.299 1627.83 944.598 1709.12 892.621C1790.41 840.644 1871.71 766.391 1912.35 729.265L1953 692.138V1004H1912.35C1871.71 1004 1790.41 1004 1709.12 1004C1627.83 1004 1546.54 1004 1465.24 1004C1383.95 1004 1302.66 1004 1221.37 1004C1140.07 1004 1058.78 1004 977.49 1004C896.197 1004 814.905 1004 733.612 1004C652.32 1004 571.027 1004 489.735 1004C408.442 1004 327.15 1004 245.857 1004C164.565 1004 83.2722 1004 42.626 1004H1.97974V825.793Z" fill="#FFC759"/>
<path fill-rule="evenodd" clip-rule="evenodd" d="M1.97974 872.557L42.626 836.632C83.2722 800.706 164.565 728.855 245.857 728.855C327.15 728.855 408.442 800.706 489.735 836.632C571.027 872.557 652.32 872.557 733.612 836.632C814.905 800.706 896.197 728.855 977.49 700.115C1058.78 671.374 1140.07 685.744 1221.37 750.41C1302.66 815.076 1383.95 930.038 1465.24 973.149C1546.54 1016.26 1627.83 987.519 1709.12 937.223C1790.41 886.928 1871.71 815.076 1912.35 779.151L1953 743.225V1045H1912.35C1871.71 1045 1790.41 1045 1709.12 1045C1627.83 1045 1546.54 1045 1465.24 1045C1383.95 1045 1302.66 1045 1221.37 1045C1140.07 1045 1058.78 1045 977.49 1045C896.197 1045 814.905 1045 733.612 1045C652.32 1045 571.027 1045 489.735 1045C408.442 1045 327.15 1045 245.857 1045C164.565 1045 83.2722 1045 42.626 1045H1.97974V872.557Z" fill="#FFB72C"/>
<path fill-rule="evenodd" clip-rule="evenodd" d="M0 926.448L40.6463 893.625C81.2925 860.801 162.585 795.154 243.878 795.154C325.17 795.154 406.463 860.801 487.755 893.625C569.048 926.448 650.34 926.448 731.633 893.625C812.925 860.801 894.218 795.154 975.51 768.896C1056.8 742.637 1138.1 755.766 1219.39 814.849C1300.68 873.931 1381.97 978.965 1463.27 1018.35C1544.56 1057.74 1625.85 1031.48 1707.14 985.53C1788.44 939.577 1869.73 873.931 1910.37 841.107L1951.02 808.284V1084H1910.37C1869.73 1084 1788.44 1084 1707.14 1084C1625.85 1084 1544.56 1084 1463.27 1084C1381.97 1084 1300.68 1084 1219.39 1084C1138.1 1084 1056.8 1084 975.51 1084C894.218 1084 812.925 1084 731.633 1084C650.34 1084 569.048 1084 487.755 1084C406.463 1084 325.17 1084 243.878 1084C162.585 1084 81.2925 1084 40.6463 1084H0V926.448Z" fill="#FFA800"/>
<defs>
<linearGradient id="paint0_linear_211_370" x1="977.985" y1="205.5" x2="1923.3" y2="205.5" gradientUnits="userSpaceOnUse">
<stop stop-color="#FA5F49"/>
<stop offset="1" stop-color="#BB3F2D"/>
</linearGradient>
</defs>
</svg>
