<svg width="1920" height="1080" viewBox="0 0 1920 1080" fill="none" xmlns="http://www.w3.org/2000/svg">
<path d="M999.121 0H1964.67V411C1404.95 406.496 1087.76 135.123 999.121 0Z" fill="url(#paint0_linear_195_340)"/>
<path d="M788.037 259.129C408.192 402.702 152.165 332.433 0.209839 277.872V0.0437904H1435.68C1439.15 -0.0143138 1442.59 -0.0148791 1446 0.0437904H1435.68C1235.44 3.39842 940.686 198.547 788.037 259.129Z" fill="#B1CDFF"/>
<path fill-rule="evenodd" clip-rule="evenodd" d="M-19 740.824L22.516 700.996C64.032 661.167 147.064 581.511 230.096 581.511C313.128 581.511 396.16 661.167 479.192 700.996C562.224 740.824 645.256 740.824 728.288 700.996C811.32 661.167 894.352 581.511 977.384 549.648C1060.42 517.785 1143.45 533.717 1226.48 605.408C1309.51 677.099 1392.54 804.549 1475.58 852.343C1558.61 900.137 1641.64 868.275 1724.67 812.515C1807.7 756.755 1890.74 677.099 1932.25 637.27L1973.77 597.442V932H1932.25C1890.74 932 1807.7 932 1724.67 932C1641.64 932 1558.61 932 1475.58 932C1392.54 932 1309.51 932 1226.48 932C1143.45 932 1060.42 932 977.384 932C894.352 932 811.32 932 728.288 932C645.256 932 562.224 932 479.192 932C396.16 932 313.128 932 230.096 932C147.064 932 64.032 932 22.516 932H-19V740.824Z" fill="#FFE2AA"/>
<path fill-rule="evenodd" clip-rule="evenodd" d="M2.23193 785.226L43.7479 745.898C85.2639 706.57 168.296 627.914 251.328 627.914C334.36 627.914 417.392 706.57 500.424 745.898C583.456 785.226 666.488 785.226 749.52 745.898C832.552 706.57 915.584 627.914 998.616 596.451C1081.65 564.989 1164.68 580.72 1247.71 651.511C1330.74 722.301 1413.78 848.15 1496.81 895.344C1579.84 942.538 1662.87 911.075 1745.9 856.016C1828.94 800.957 1911.97 722.301 1953.48 682.973L1995 643.645V974H1953.48C1911.97 974 1828.94 974 1745.9 974C1662.87 974 1579.84 974 1496.81 974C1413.78 974 1330.74 974 1247.71 974C1164.68 974 1081.65 974 998.616 974C915.584 974 832.552 974 749.52 974C666.488 974 583.456 974 500.424 974C417.392 974 334.36 974 251.328 974C168.296 974 85.2639 974 43.7479 974H2.23193V785.226Z" fill="#FFCD6C"/>
<path fill-rule="evenodd" clip-rule="evenodd" d="M2.23193 825.793L43.7479 788.667C85.2639 751.54 168.296 677.288 251.328 677.288C334.36 677.288 417.392 751.54 500.424 788.667C583.456 825.793 666.488 825.793 749.52 788.667C832.552 751.54 915.584 677.288 998.616 647.586C1081.65 617.885 1164.68 632.736 1247.71 699.563C1330.74 766.391 1413.78 885.195 1496.81 929.747C1579.84 974.299 1662.87 944.598 1745.9 892.621C1828.94 840.644 1911.97 766.391 1953.48 729.265L1995 692.138V1004H1953.48C1911.97 1004 1828.94 1004 1745.9 1004C1662.87 1004 1579.84 1004 1496.81 1004C1413.78 1004 1330.74 1004 1247.71 1004C1164.68 1004 1081.65 1004 998.616 1004C915.584 1004 832.552 1004 749.52 1004C666.488 1004 583.456 1004 500.424 1004C417.392 1004 334.36 1004 251.328 1004C168.296 1004 85.2639 1004 43.7479 1004H2.23193V825.793Z" fill="#FFC759"/>
<path fill-rule="evenodd" clip-rule="evenodd" d="M2.23193 872.557L43.7479 836.632C85.2639 800.706 168.296 728.855 251.328 728.855C334.36 728.855 417.392 800.706 500.424 836.632C583.456 872.557 666.488 872.557 749.52 836.632C832.552 800.706 915.584 728.855 998.616 700.115C1081.65 671.374 1164.68 685.744 1247.71 750.41C1330.74 815.076 1413.78 930.038 1496.81 973.149C1579.84 1016.26 1662.87 987.519 1745.9 937.223C1828.94 886.928 1911.97 815.076 1953.48 779.151L1995 743.225V1045H1953.48C1911.97 1045 1828.94 1045 1745.9 1045C1662.87 1045 1579.84 1045 1496.81 1045C1413.78 1045 1330.74 1045 1247.71 1045C1164.68 1045 1081.65 1045 998.616 1045C915.584 1045 832.552 1045 749.52 1045C666.488 1045 583.456 1045 500.424 1045C417.392 1045 334.36 1045 251.328 1045C168.296 1045 85.2639 1045 43.7479 1045H2.23193V872.557Z" fill="#FFB72C"/>
<path fill-rule="evenodd" clip-rule="evenodd" d="M0.209839 926.448L41.7258 893.625C83.2418 860.801 166.274 795.154 249.306 795.154C332.338 795.154 415.37 860.801 498.402 893.625C581.434 926.448 664.466 926.448 747.498 893.625C830.53 860.801 913.562 795.154 996.594 768.896C1079.63 742.637 1162.66 755.766 1245.69 814.849C1328.72 873.931 1411.75 978.965 1494.79 1018.35C1577.82 1057.74 1660.85 1031.48 1743.88 985.53C1826.91 939.577 1909.95 873.931 1951.46 841.107L1992.98 808.284V1084H1951.46C1909.95 1084 1826.91 1084 1743.88 1084C1660.85 1084 1577.82 1084 1494.79 1084C1411.75 1084 1328.72 1084 1245.69 1084C1162.66 1084 1079.63 1084 996.594 1084C913.562 1084 830.53 1084 747.498 1084C664.466 1084 581.434 1084 498.402 1084C415.37 1084 332.338 1084 249.306 1084C166.274 1084 83.2418 1084 41.7258 1084H0.209839V926.448Z" fill="#FFA800"/>
<defs>
<linearGradient id="paint0_linear_195_340" x1="999.121" y1="205.5" x2="1964.67" y2="205.5" gradientUnits="userSpaceOnUse">
<stop stop-color="#FA5F49"/>
<stop offset="1" stop-color="#BB3F2D"/>
</linearGradient>
</defs>
</svg>
